<svg width="398.573" height="310.28" viewBox="0 0 298.93 232.71" class="displayed_equation" xmlns="http://www.w3.org/2000/svg">
  <defs>
    <clipPath id="svg923174389174tikz_00005a">
      <path d="M 15.734375 15.730469 L 283.203125 15.730469 L 283.203125 174 L 15.734375 174 Z M 15.734375 15.730469" />
    </clipPath>
    <clipPath id="svg923174389174tikz_00005b">
      <path d="M 15.734375 172 L 283.203125 172 L 283.203125 216.972656 L 15.734375 216.972656 Z M 15.734375 172" />
    </clipPath>
    <clipPath id="svg923174389174tikz_00005c">
      <path d="M 15.734375 171 L 283.203125 171 L 283.203125 173 L 15.734375 173 Z M 15.734375 171" />
    </clipPath>
  </defs>
  <g clip-path="url(#svg923174389174tikz_00005a)">
    <path d="M 283.179688 173.773438 L 15.757813 173.773438 L 15.757813 36.988281 C 15.757813 25.238281 25.265625 15.730469 37.011719 15.730469 L 261.925781 15.730469 C 273.671875 15.730469 283.179688 25.238281 283.179688 36.988281 Z M 283.179688 173.773438" fill="#abe0f4" />
  </g>
  <g clip-path="url(#svg923174389174tikz_00005b)">
    <path d="M 261.925781 216.972656 L 37.011719 216.972656 C 25.265625 216.972656 15.757813 207.464844 15.757813 195.71875 L 15.757813 172.355469 L 283.179688 172.355469 L 283.179688 195.71875 C 283.179688 207.464844 273.671875 216.972656 261.925781 216.972656 Z M 261.925781 216.972656" fill="#c8de7f" />
  </g>
  <g clip-path="url(#svg923174389174tikz_00005c)">
    <path d="M 157.578125 603.545312 L 2831.796875 603.545312" transform="matrix(.1 0 0 -.1 0 232.71)" fill="none" stroke-width="8.606" stroke="#010101" stroke-miterlimit="10" />
  </g>
  <path d="M 159.773438 57.511719 C 159.773438 63.214844 155.152344 67.835938 149.445313 67.835938 C 143.746094 67.835938 139.121094 63.214844 139.121094 57.511719 C 139.121094 51.804688 143.746094 47.183594 149.445313 47.183594 C 155.152344 47.183594 159.773438 51.804688 159.773438 57.511719 Z M 159.773438 57.511719" fill="#cbdc3e" />
  <path d="M 159.480469 57.410156 C 159.480469 63.011719 154.941406 67.550781 149.339844 67.550781 C 143.742188 67.550781 139.203125 63.011719 139.203125 57.410156 C 139.203125 51.8125 143.742188 47.273438 149.339844 47.273438 C 154.941406 47.273438 159.480469 51.8125 159.480469 57.410156 Z M 159.480469 57.410156" fill="#ccdc40" />
  <path d="M 159.183594 57.304688 C 159.183594 62.796875 154.734375 67.246094 149.242188 67.246094 C 143.753906 67.246094 139.300781 62.796875 139.300781 57.304688 C 139.300781 51.816406 143.753906 47.363281 149.242188 47.363281 C 154.734375 47.363281 159.183594 51.816406 159.183594 57.304688 Z M 159.183594 57.304688" fill="#cddd42" />
  <path d="M 158.894531 57.207031 C 158.894531 62.59375 154.53125 66.957031 149.144531 66.957031 C 143.757813 66.957031 139.390625 62.59375 139.390625 57.207031 C 139.390625 51.820313 143.757813 47.453125 149.144531 47.453125 C 154.53125 47.453125 158.894531 51.820313 158.894531 57.207031 Z M 158.894531 57.207031" fill="#cddd44" />
  <path d="M 158.609375 57.109375 C 158.609375 62.390625 154.328125 66.671875 149.046875 66.671875 C 143.761719 66.671875 139.480469 62.390625 139.480469 57.109375 C 139.480469 51.824219 143.761719 47.546875 149.046875 47.546875 C 154.328125 47.546875 158.609375 51.824219 158.609375 57.109375 Z M 158.609375 57.109375" fill="#cede46" />
  <path d="M 158.320313 57.007813 C 158.320313 62.1875 154.121094 66.382813 148.945313 66.382813 C 143.769531 66.382813 139.570313 62.1875 139.570313 57.007813 C 139.570313 51.832031 143.769531 47.636719 148.945313 47.636719 C 154.121094 47.636719 158.320313 51.832031 158.320313 57.007813 Z M 158.320313 57.007813" fill="#cfde48" />
  <path d="M 158.035156 56.910156 C 158.035156 61.984375 153.921875 66.097656 148.847656 66.097656 C 143.773438 66.097656 139.664063 61.984375 139.664063 56.910156 C 139.664063 51.839844 143.773438 47.722656 148.847656 47.722656 C 153.921875 47.722656 158.035156 51.839844 158.035156 56.910156 Z M 158.035156 56.910156" fill="#d0de4a" />
  <path d="M 157.738281 56.8125 C 157.738281 61.78125 153.710938 65.808594 148.742188 65.808594 C 143.773438 65.808594 139.746094 61.78125 139.746094 56.8125 C 139.746094 51.84375 143.773438 47.816406 148.742188 47.816406 C 153.710938 47.816406 157.738281 51.84375 157.738281 56.8125 Z M 157.738281 56.8125" fill="#d1df4c" />
  <path d="M 157.453125 56.707031 C 157.453125 61.570313 153.507813 65.511719 148.644531 65.511719 C 143.777344 65.511719 139.835938 61.570313 139.835938 56.707031 C 139.835938 51.84375 143.777344 47.898438 148.644531 47.898438 C 153.507813 47.898438 157.453125 51.84375 157.453125 56.707031 Z M 157.453125 56.707031" fill="#d1df4e" />
  <path d="M 157.15625 56.605469 C 157.15625 61.363281 153.300781 65.21875 148.546875 65.21875 C 143.789063 65.21875 139.933594 61.363281 139.933594 56.605469 C 139.933594 51.851563 143.789063 47.996094 148.546875 47.996094 C 153.300781 47.996094 157.15625 51.851563 157.15625 56.605469 Z M 157.15625 56.605469" fill="#d2df50" />
  <path d="M 156.867188 56.507813 C 156.867188 61.160156 153.097656 64.929688 148.445313 64.929688 C 143.796875 64.929688 140.023438 61.160156 140.023438 56.507813 C 140.023438 51.855469 143.796875 48.085938 148.445313 48.085938 C 153.097656 48.085938 156.867188 51.855469 156.867188 56.507813 Z M 156.867188 56.507813" fill="#d3e052" />
  <path d="M 156.582031 56.410156 C 156.582031 60.957031 152.894531 64.644531 148.347656 64.644531 C 143.800781 64.644531 140.113281 60.957031 140.113281 56.410156 C 140.113281 51.863281 143.800781 48.175781 148.347656 48.175781 C 152.894531 48.175781 156.582031 51.863281 156.582031 56.410156 Z M 156.582031 56.410156" fill="#d4e054" />
  <path d="M 156.292969 56.3125 C 156.292969 60.753906 152.691406 64.355469 148.25 64.355469 C 143.808594 64.355469 140.203125 60.753906 140.203125 56.3125 C 140.203125 51.867188 143.808594 48.265625 148.25 48.265625 C 152.691406 48.265625 156.292969 51.867188 156.292969 56.3125 Z M 156.292969 56.3125" fill="#d5e156" />
  <path d="M 155.996094 56.207031 C 155.996094 60.542969 152.480469 64.058594 148.140625 64.058594 C 143.804688 64.058594 140.285156 60.542969 140.285156 56.207031 C 140.285156 51.867188 143.804688 48.347656 148.140625 48.347656 C 152.480469 48.347656 155.996094 51.867188 155.996094 56.207031 Z M 155.996094 56.207031" fill="#d5e158" />
  <path d="M 155.710938 56.105469 C 155.710938 60.339844 152.277344 63.773438 148.046875 63.773438 C 143.808594 63.773438 140.378906 60.339844 140.378906 56.105469 C 140.378906 51.871094 143.808594 48.4375 148.046875 48.4375 C 152.277344 48.4375 155.710938 51.871094 155.710938 56.105469 Z M 155.710938 56.105469" fill="#d6e15a" />
  <path d="M 155.425781 56.007813 C 155.425781 60.136719 152.074219 63.484375 147.945313 63.484375 C 143.816406 63.484375 140.46875 60.136719 140.46875 56.007813 C 140.46875 51.878906 143.816406 48.527344 147.945313 48.527344 C 152.074219 48.527344 155.425781 51.878906 155.425781 56.007813 Z M 155.425781 56.007813" fill="#d7e25c" />
  <path d="M 155.136719 55.910156 C 155.136719 59.933594 151.871094 63.199219 147.847656 63.199219 C 143.820313 63.199219 140.558594 59.933594 140.558594 55.910156 C 140.558594 51.882813 143.820313 48.621094 147.847656 48.621094 C 151.871094 48.621094 155.136719 51.882813 155.136719 55.910156 Z M 155.136719 55.910156" fill="#d8e25d" />
  <path d="M 154.839844 55.8125 C 154.839844 59.726563 151.664063 62.902344 147.75 62.902344 C 143.832031 62.902344 140.65625 59.726563 140.65625 55.8125 C 140.65625 51.894531 143.832031 48.71875 147.75 48.71875 C 151.664063 48.71875 154.839844 51.894531 154.839844 55.8125 Z M 154.839844 55.8125" fill="#d9e35f" />
  <path d="M 154.546875 55.710938 C 154.546875 59.523438 151.453125 62.613281 147.640625 62.613281 C 143.828125 62.613281 140.738281 59.523438 140.738281 55.710938 C 140.738281 51.898438 143.828125 48.808594 147.640625 48.808594 C 151.453125 48.808594 154.546875 51.898438 154.546875 55.710938 Z M 154.546875 55.710938" fill="#dae361" />
  <path d="M 154.257813 55.605469 C 154.257813 59.316406 151.253906 62.320313 147.542969 62.320313 C 143.835938 62.320313 140.828125 59.316406 140.828125 55.605469 C 140.828125 51.898438 143.835938 48.890625 147.542969 48.890625 C 151.253906 48.890625 154.257813 51.898438 154.257813 55.605469 Z M 154.257813 55.605469" fill="#dae363" />
  <path d="M 153.972656 55.507813 C 153.972656 59.113281 151.046875 62.03125 147.445313 62.03125 C 143.839844 62.03125 140.917969 59.113281 140.917969 55.507813 C 140.917969 51.902344 143.839844 48.980469 147.445313 48.980469 C 151.046875 48.980469 153.972656 51.902344 153.972656 55.507813 Z M 153.972656 55.507813" fill="#dbe465" />
  <path d="M 153.683594 55.40625 C 153.683594 58.90625 150.847656 61.746094 147.347656 61.746094 C 143.847656 61.746094 141.007813 58.90625 141.007813 55.40625 C 141.007813 51.910156 143.847656 49.070313 147.347656 49.070313 C 150.847656 49.070313 153.683594 51.910156 153.683594 55.40625 Z M 153.683594 55.40625" fill="#dce467" />
  <path d="M 153.394531 55.308594 C 153.394531 58.703125 150.644531 61.457031 147.246094 61.457031 C 143.851563 61.457031 141.097656 58.703125 141.097656 55.308594 C 141.097656 51.914063 143.851563 49.160156 147.246094 49.160156 C 150.644531 49.160156 153.394531 51.914063 153.394531 55.308594 Z M 153.394531 55.308594" fill="#dde569" />
  <path d="M 153.109375 55.210938 C 153.109375 58.503906 150.441406 61.171875 147.148438 61.171875 C 143.855469 61.171875 141.191406 58.503906 141.191406 55.210938 C 141.191406 51.921875 143.855469 49.25 147.148438 49.25 C 150.441406 49.25 153.109375 51.921875 153.109375 55.210938 Z M 153.109375 55.210938" fill="#dee56b" />
  <path d="M 152.804688 55.105469 C 152.804688 58.285156 150.226563 60.867188 147.042969 60.867188 C 143.859375 60.867188 141.28125 58.285156 141.28125 55.105469 C 141.28125 51.921875 143.859375 49.34375 147.042969 49.34375 C 150.226563 49.34375 152.804688 51.921875 152.804688 55.105469 Z M 152.804688 55.105469" fill="#dee56d" />
  <path d="M 152.519531 55.007813 C 152.519531 58.085938 150.023438 60.578125 146.945313 60.578125 C 143.867188 60.578125 141.371094 58.085938 141.371094 55.007813 C 141.371094 51.929688 143.867188 49.433594 146.945313 49.433594 C 150.023438 49.433594 152.519531 51.929688 152.519531 55.007813 Z M 152.519531 55.007813" fill="#dfe66f" />
  <path d="M 152.230469 54.90625 C 152.230469 57.882813 149.820313 60.292969 146.84375 60.292969 C 143.871094 60.292969 141.460938 57.882813 141.460938 54.90625 C 141.460938 51.933594 143.871094 49.523438 146.84375 49.523438 C 149.820313 49.523438 152.230469 51.933594 152.230469 54.90625 Z M 152.230469 54.90625" fill="#e0e671" />
  <path d="M 151.941406 54.808594 C 151.941406 57.679688 149.617188 60.003906 146.746094 60.003906 C 143.878906 60.003906 141.550781 57.679688 141.550781 54.808594 C 141.550781 51.9375 143.878906 49.613281 146.746094 49.613281 C 149.617188 49.613281 151.941406 51.9375 151.941406 54.808594 Z M 151.941406 54.808594" fill="#e1e673" />
  <path d="M 151.65625 54.710938 C 151.65625 57.476563 149.414063 59.71875 146.648438 59.71875 C 143.882813 59.71875 141.640625 57.476563 141.640625 54.710938 C 141.640625 51.945313 143.882813 49.703125 146.648438 49.703125 C 149.414063 49.703125 151.65625 51.945313 151.65625 54.710938 Z M 151.65625 54.710938" fill="#e2e775" />
  <path d="M 151.359375 54.613281 C 151.359375 57.273438 149.203125 59.429688 146.539063 59.429688 C 143.882813 59.429688 141.722656 57.273438 141.722656 54.613281 C 141.722656 51.949219 143.882813 49.792969 146.539063 49.792969 C 149.203125 49.792969 151.359375 51.949219 151.359375 54.613281 Z M 151.359375 54.613281" fill="#e2e777" />
  <path d="M 151.074219 54.507813 C 151.074219 57.0625 149 59.136719 146.445313 59.136719 C 143.886719 59.136719 141.8125 57.0625 141.8125 54.507813 C 141.8125 51.949219 143.886719 49.875 146.445313 49.875 C 149 49.875 151.074219 51.949219 151.074219 54.507813 Z M 151.074219 54.507813" fill="#e3e879" />
  <path d="M 150.777344 54.40625 C 150.777344 56.855469 148.792969 58.839844 146.34375 58.839844 C 143.894531 58.839844 141.910156 56.855469 141.910156 54.40625 C 141.910156 51.960938 143.894531 49.972656 146.34375 49.972656 C 148.792969 49.972656 150.777344 51.960938 150.777344 54.40625 Z M 150.777344 54.40625" fill="#e4e87b" />
  <path d="M 153.878906 48.316406 C 152.863281 47.824219 151.746094 47.503906 150.5625 47.378906 C 149.882813 47.40625 149.128906 47.480469 148.339844 47.652344 C 148.273438 47.660156 148.214844 47.675781 148.152344 47.683594 C 148.085938 47.699219 148.027344 47.71875 147.964844 47.734375 C 147.839844 47.765625 147.707031 47.800781 147.585938 47.832031 C 147.453125 47.863281 147.328125 47.898438 147.199219 47.929688 C 147.066406 47.972656 146.9375 48.011719 146.804688 48.0625 C 146.53125 48.144531 146.253906 48.226563 146.007813 48.332031 C 145.882813 48.382813 145.753906 48.433594 145.621094 48.488281 L 145.433594 48.570313 L 145.382813 48.585938 L 145.359375 48.59375 L 145.351563 48.601563 C 145.34375 48.601563 145.34375 48.601563 145.34375 48.601563 C 145.34375 48.601563 145.335938 48.613281 145.320313 48.613281 L 145.210938 48.660156 C 144.679688 48.914063 144.128906 49.210938 143.613281 49.597656 C 143.496094 49.679688 143.382813 49.769531 143.273438 49.859375 C 143.242188 49.886719 143.210938 49.90625 143.183594 49.941406 C 143.085938 50.023438 142.996094 50.105469 142.90625 50.195313 C 142.886719 50.210938 142.871094 50.222656 142.863281 50.238281 C 142.78125 50.320313 142.699219 50.402344 142.617188 50.492188 C 142.625 50.484375 142.625 50.484375 142.632813 50.472656 C 142.488281 50.640625 142.339844 50.804688 142.199219 50.976563 C 141.96875 51.253906 141.773438 51.558594 141.601563 51.886719 C 141.589844 51.894531 141.589844 51.902344 141.582031 51.910156 C 141.523438 52.019531 141.476563 52.125 141.421875 52.230469 C 141.410156 52.238281 141.410156 52.257813 141.402344 52.273438 C 141.320313 52.445313 141.246094 52.617188 141.171875 52.796875 C 141.117188 52.945313 141.066406 53.09375 141.023438 53.242188 C 141.007813 53.28125 141 53.332031 140.984375 53.375 C 140.949219 53.488281 140.917969 53.609375 140.894531 53.734375 C 140.886719 53.773438 140.878906 53.808594 140.867188 53.847656 C 140.835938 53.988281 140.8125 54.128906 140.785156 54.265625 C 140.785156 54.277344 140.785156 54.285156 140.785156 54.300781 C 140.753906 54.488281 140.738281 54.679688 140.722656 54.867188 C 140.707031 55.0625 140.707031 55.253906 140.707031 55.449219 C 140.707031 55.457031 140.707031 55.476563 140.707031 55.484375 C 140.707031 55.605469 140.714844 55.738281 140.714844 55.859375 C 140.714844 55.886719 140.714844 55.910156 140.714844 55.933594 C 140.722656 56.097656 140.738281 56.261719 140.753906 56.429688 C 140.761719 56.484375 140.769531 56.542969 140.78125 56.589844 C 140.796875 56.695313 140.8125 56.8125 140.828125 56.917969 C 140.835938 56.984375 140.855469 57.050781 140.859375 57.109375 C 140.878906 57.207031 140.902344 57.3125 140.929688 57.410156 C 140.941406 57.476563 140.960938 57.542969 140.976563 57.609375 C 141 57.707031 141.035156 57.8125 141.066406 57.910156 C 141.082031 57.976563 141.105469 58.035156 141.125 58.101563 C 141.164063 58.207031 141.207031 58.320313 141.246094 58.429688 C 141.273438 58.476563 141.289063 58.535156 141.304688 58.585938 C 141.371094 58.742188 141.441406 58.90625 141.515625 59.0625 C 141.863281 59.726563 142.339844 60.351563 142.9375 60.828125 C 143.234375 61.074219 143.554688 61.277344 143.882813 61.449219 C 144.210938 61.621094 144.554688 61.761719 144.898438 61.871094 C 145.589844 62.082031 146.289063 62.1875 146.960938 62.230469 C 147.640625 62.269531 148.296875 62.246094 148.9375 62.1875 C 149.09375 62.171875 149.257813 62.15625 149.414063 62.140625 C 149.570313 62.113281 149.734375 62.101563 149.882813 62.074219 C 150.179688 62.027344 150.472656 61.984375 150.761719 61.933594 C 151.097656 61.886719 151.425781 61.84375 151.753906 61.804688 C 151.984375 61.777344 152.203125 61.753906 152.425781 61.738281 C 152.96875 61.695313 153.488281 61.671875 153.980469 61.695313 C 154.472656 61.722656 154.933594 61.785156 155.324219 61.917969 C 155.726563 62.039063 156.046875 62.238281 156.277344 62.476563 C 156.300781 62.511719 156.335938 62.542969 156.359375 62.566406 C 156.378906 62.59375 156.398438 62.613281 156.425781 62.648438 C 156.449219 62.683594 156.480469 62.738281 156.507813 62.78125 L 156.523438 62.8125 L 156.523438 62.820313 L 156.546875 62.871094 C 156.605469 63.003906 156.644531 63.140625 156.65625 63.289063 C 156.671875 63.4375 156.65625 63.585938 156.628906 63.742188 C 156.605469 63.890625 156.5625 64.046875 156.515625 64.183594 C 156.414063 64.472656 156.285156 64.734375 156.164063 64.972656 C 156.070313 65.128906 155.988281 65.269531 155.90625 65.398438 C 156.574219 64.859375 157.164063 64.234375 157.671875 63.542969 C 157.683594 63.453125 157.6875 63.355469 157.6875 63.25 C 157.683594 62.992188 157.640625 62.730469 157.542969 62.46875 L 157.5 62.371094 L 157.492188 62.34375 L 157.476563 62.3125 L 157.46875 62.304688 L 157.453125 62.269531 C 157.425781 62.222656 157.402344 62.179688 157.378906 62.125 C 157.335938 62.058594 157.296875 61.992188 157.253906 61.933594 C 157.214844 61.878906 157.171875 61.820313 157.121094 61.761719 C 156.761719 61.328125 156.261719 61.007813 155.734375 60.808594 C 155.210938 60.613281 154.652344 60.507813 154.085938 60.449219 C 153.839844 60.425781 153.585938 60.40625 153.328125 60.398438 C 153.3125 60.398438 153.296875 60.398438 153.28125 60.398438 C 153.175781 60.398438 153.058594 60.398438 152.945313 60.398438 C 152.902344 60.398438 152.863281 60.398438 152.820313 60.398438 C 152.664063 60.398438 152.507813 60.40625 152.351563 60.417969 C 151.769531 60.441406 151.179688 60.492188 150.582031 60.566406 C 150.285156 60.597656 149.988281 60.636719 149.695313 60.671875 C 149.539063 60.6875 149.40625 60.703125 149.257813 60.710938 C 149.109375 60.722656 148.972656 60.734375 148.824219 60.742188 C 148.683594 60.753906 148.535156 60.761719 148.398438 60.769531 C 148.347656 60.769531 148.296875 60.769531 148.25 60.769531 C 148.160156 60.769531 148.058594 60.777344 147.96875 60.777344 C 147.910156 60.777344 147.863281 60.777344 147.804688 60.777344 C 147.714844 60.777344 147.625 60.777344 147.535156 60.769531 C 147.476563 60.769531 147.421875 60.761719 147.363281 60.761719 C 147.273438 60.753906 147.1875 60.753906 147.097656 60.742188 C 147.019531 60.734375 146.9375 60.726563 146.855469 60.722656 C 146.789063 60.710938 146.722656 60.703125 146.65625 60.695313 C 146.566406 60.6875 146.476563 60.671875 146.394531 60.652344 C 146.335938 60.648438 146.277344 60.636719 146.222656 60.628906 C 146.121094 60.613281 146.023438 60.589844 145.933594 60.566406 C 145.882813 60.554688 145.84375 60.546875 145.792969 60.53125 C 145.65625 60.5 145.515625 60.457031 145.375 60.40625 C 145.105469 60.316406 144.851563 60.203125 144.613281 60.078125 C 144.367188 59.949219 144.144531 59.800781 143.9375 59.628906 C 143.519531 59.28125 143.191406 58.847656 142.9375 58.355469 C 142.683594 57.855469 142.519531 57.296875 142.421875 56.722656 L 142.402344 56.632813 L 142.347656 56.269531 L 142.304688 55.859375 C 142.296875 55.710938 142.296875 55.570313 142.289063 55.425781 C 142.296875 55.277344 142.296875 55.136719 142.304688 54.988281 C 142.339844 54.414063 142.445313 53.855469 142.617188 53.332031 C 142.789063 52.804688 143.027344 52.296875 143.339844 51.855469 C 143.652344 51.410156 144.003906 50.992188 144.421875 50.648438 C 144.824219 50.285156 145.277344 50 145.738281 49.726563 L 145.820313 49.679688 C 145.8125 49.6875 145.800781 49.6875 145.800781 49.6875 L 145.8125 49.6875 L 145.820313 49.679688 L 145.84375 49.671875 L 145.894531 49.644531 L 146.082031 49.554688 C 146.203125 49.488281 146.328125 49.433594 146.449219 49.375 C 146.550781 49.324219 146.640625 49.285156 146.730469 49.246094 C 146.746094 49.238281 146.769531 49.226563 146.789063 49.21875 C 146.871094 49.1875 146.960938 49.144531 147.042969 49.113281 C 147.085938 49.097656 147.125 49.078125 147.164063 49.0625 C 147.28125 49.015625 147.394531 48.964844 147.511719 48.925781 C 147.625 48.882813 147.75 48.84375 147.863281 48.808594 C 147.976563 48.769531 148.09375 48.734375 148.207031 48.695313 C 148.265625 48.675781 148.324219 48.660156 148.382813 48.636719 C 148.4375 48.621094 148.496094 48.613281 148.550781 48.59375 C 149.464844 48.339844 150.335938 48.226563 151.105469 48.191406 C 151.878906 48.152344 152.558594 48.183594 153.109375 48.25 C 153.40625 48.242188 153.65625 48.285156 153.878906 48.316406 Z M 153.878906 48.316406" fill="#fff" />
  <path d="M 1597.734375 1751.982812 C 1597.734375 1694.951562 1551.523438 1648.740625 1494.453125 1648.740625 C 1437.460938 1648.740625 1391.210938 1694.951562 1391.210938 1751.982812 C 1391.210938 1809.053125 1437.460938 1855.264062 1494.453125 1855.264062 C 1551.523438 1855.264062 1597.734375 1809.053125 1597.734375 1751.982812 Z M 1597.734375 1751.982812" transform="matrix(.1 0 0 -.1 0 232.71)" fill="none" stroke-width="8.606" stroke="#000" stroke-miterlimit="10" />
  <path d="M 1494.453125 800.225 L 1494.453125 487.803125" transform="matrix(.1 0 0 -.1 0 232.71)" fill="none" stroke-width="8.606" stroke-linecap="round" stroke-linejoin="round" stroke="#000" />
  <path d="M 149.445313 146.621094 L 145.960938 155.183594 L 149.445313 153.121094 L 152.976563 155.183594 Z M 149.445313 146.621094" />
  <path d="M 1494.453125 1426.279687 L 1494.453125 1738.6625" transform="matrix(.1 0 0 -.1 0 232.71)" fill="none" stroke-width="8.606" stroke-linecap="round" stroke-linejoin="round" stroke="#000" />
  <path d="M149.445313 96.148438L152.976563 87.585938 149.445313 89.652344 145.960938 87.585938zM252.472656 185.234375L252.113281 185.234375C251.679688 186.5625 251.476563 186.832031 249.75 186.820313L248.3125 186.820313 248.3125 183.75 249.617188 183.75C250.640625 183.75 250.867188 183.875 250.867188 184.789063L251.222656 184.789063 251.222656 182.199219 250.867188 182.199219C250.867188 183.105469 250.640625 183.316406 249.617188 183.316406L248.3125 183.316406 248.3125 180.480469 249.949219 180.480469C251.320313 180.480469 251.601563 180.695313 251.769531 181.808594L252.125 181.808594 252.058594 179.980469 246.203125 179.980469 246.203125 180.316406C247.105469 180.316406 247.285156 180.492188 247.285156 181.339844L247.285156 185.992188C247.285156 186.863281 247.105469 186.976563 246.203125 186.976563L246.203125 187.308594 252.160156 187.308594 252.472656 185.234375M256.335938 186.617188C256.402344 187.109375 256.515625 187.367188 257.007813 187.367188 257.574219 187.367188 257.84375 187.132813 258.210938 186.597656L258.042969 186.417969C257.886719 186.585938 257.730469 186.695313 257.519531 186.695313 257.285156 186.695313 257.183594 186.605469 257.183594 186.148438L257.183594 183.617188C257.183594 182.457031 256.726563 181.898438 255.511719 181.898438 254.296875 181.898438 253.546875 182.503906 253.546875 183.125 253.546875 183.496094 253.792969 183.660156 254.015625 183.660156 254.328125 183.660156 254.507813 183.496094 254.507813 183.148438 254.507813 182.480469 254.617188 182.246094 255.253906 182.246094 255.921875 182.246094 256.257813 182.613281 256.257813 183.582031L256.257813 184.074219C255.296875 184.375 253.324219 184.667969 253.324219 186.136719 253.324219 186.851563 253.792969 187.386719 254.652344 187.386719 255.367188 187.386719 255.765625 187.074219 256.292969 186.617188zM256.257813 186.285156C255.878906 186.597656 255.476563 186.773438 255.109375 186.773438 254.628906 186.773438 254.304688 186.429688 254.304688 185.871094 254.304688 185 255.242188 184.699219 256.257813 184.441406L256.257813 186.285156M260.242188 181.933594L259.972656 181.933594 258.589844 182.269531 258.589844 182.582031C258.589844 182.582031 258.714844 182.558594 258.9375 182.558594 259.339844 182.558594 259.339844 182.757813 259.339844 183.160156L259.339844 186.226563C259.339844 186.851563 259.257813 186.988281 258.523438 186.988281L258.523438 187.308594 261.3125 187.308594 261.3125 186.988281C260.476563 186.988281 260.265625 186.875 260.265625 186.171875L260.265625 183.628906C260.53125 183.183594 260.890625 182.714844 261.144531 182.714844 261.28125 182.714844 261.503906 183.09375 261.871094 183.09375 262.117188 183.09375 262.359375 182.914063 262.359375 182.492188 262.359375 182.113281 262.148438 181.867188 261.714844 181.867188 261.179688 181.867188 260.84375 182.257813 260.273438 183.082031L260.242188 183.082031 260.242188 181.933594M265.769531 186.304688C265.492188 186.617188 265.34375 186.761719 264.988281 186.761719 264.554688 186.761719 264.453125 186.496094 264.453125 185.703125L264.453125 182.503906 265.714844 182.503906 265.714844 182.035156 264.453125 182.035156 264.464844 180.503906 264.171875 180.503906C263.773438 181.453125 263.4375 181.921875 262.914063 182.246094L262.914063 182.503906 263.527344 182.503906 263.527344 186.015625C263.527344 187.019531 263.851563 187.421875 264.597656 187.421875 265.3125 187.421875 265.546875 187.085938 265.980469 186.484375L265.769531 186.304688M268.042969 183.304688C268.589844 182.800781 268.992188 182.613281 269.425781 182.613281 270.328125 182.613281 270.453125 183.382813 270.453125 184.296875L270.453125 186.226563C270.453125 186.761719 270.40625 186.988281 269.636719 186.988281L269.636719 187.308594 272.203125 187.308594 272.203125 186.988281C271.5 186.988281 271.378906 186.773438 271.378906 186.183594L271.378906 183.964844C271.378906 183.050781 271.164063 181.898438 269.882813 181.898438 269.289063 181.898438 268.777344 182.15625 268.074219 182.816406L268.042969 182.816406 268.042969 179.433594 267.742188 179.433594 266.246094 179.824219 266.246094 180.136719C266.246094 180.136719 266.390625 180.113281 266.570313 180.113281 266.871094 180.113281 267.117188 180.167969 267.117188 180.558594L267.117188 186.273438C267.117188 186.898438 266.914063 186.988281 266.335938 186.988281L266.335938 187.308594 268.867188 187.308594 268.867188 186.988281C268.097656 186.988281 268.042969 186.808594 268.042969 186.226563L268.042969 183.304688M169.046875 56.386719L168.960938 54.378906 162.789063 54.378906 162.667969 56.386719 163.011719 56.386719C163.246094 55.171875 163.402344 54.882813 164.632813 54.882813L165.34375 54.882813 165.34375 60.25C165.34375 61.261719 165.1875 61.375 164.253906 61.375L164.253906 61.710938 167.488281 61.710938 167.488281 61.375C166.527344 61.375 166.382813 61.261719 166.382813 60.25L166.382813 54.882813 167.085938 54.882813C168.324219 54.882813 168.457031 55.171875 168.703125 56.386719L169.046875 56.386719M173.128906 60.113281C172.773438 60.582031 172.425781 60.984375 171.523438 60.984375 170.632813 60.984375 169.78125 60.28125 169.78125 58.742188L173.308594 58.742188C173.253906 57.179688 172.449219 56.300781 171.234375 56.300781 169.929688 56.300781 168.878906 57.191406 168.878906 59.054688 168.878906 60.851563 169.917969 61.820313 171.257813 61.820313 172.40625 61.820313 172.941406 61.117188 173.34375 60.269531zM169.773438 58.328125C169.859375 57.292969 170.308594 56.746094 171.066406 56.746094 171.859375 56.746094 172.226563 57.503906 172.257813 58.328125L169.773438 58.328125M179.066406 58.285156C179.066406 57.003906 178.585938 56.300781 177.570313 56.300781 176.867188 56.300781 176.378906 56.699219 175.773438 57.238281L175.730469 57.238281 175.742188 56.332031 175.484375 56.332031 174.070313 56.65625 174.070313 56.980469C174.070313 56.980469 174.179688 56.957031 174.367188 56.957031 174.671875 56.957031 174.839844 57.046875 174.839844 57.449219L174.839844 60.582031C174.839844 61.207031 174.804688 61.398438 174.054688 61.398438L174.054688 61.710938 176.613281 61.710938 176.613281 61.398438C175.808594 61.398438 175.765625 61.207031 175.765625 60.582031L175.765625 57.714844C176.097656 57.414063 176.511719 57.011719 177.113281 57.011719 177.617188 57.011719 178.140625 57.226563 178.140625 58.566406L178.140625 60.582031C178.140625 61.207031 178.105469 61.398438 177.3125 61.398438L177.3125 61.710938 179.890625 61.710938 179.890625 61.398438C179.144531 61.398438 179.066406 61.207031 179.066406 60.582031L179.066406 58.285156M185.464844 58.285156C185.464844 57.003906 184.984375 56.300781 183.972656 56.300781 183.269531 56.300781 182.777344 56.699219 182.175781 57.238281L182.128906 57.238281 182.140625 56.332031 181.882813 56.332031 180.46875 56.65625 180.46875 56.980469C180.46875 56.980469 180.578125 56.957031 180.769531 56.957031 181.070313 56.957031 181.238281 57.046875 181.238281 57.449219L181.238281 60.582031C181.238281 61.207031 181.203125 61.398438 180.457031 61.398438L180.457031 61.710938 183.011719 61.710938 183.011719 61.398438C182.207031 61.398438 182.164063 61.207031 182.164063 60.582031L182.164063 57.714844C182.496094 57.414063 182.910156 57.011719 183.515625 57.011719 184.015625 57.011719 184.539063 57.226563 184.539063 58.566406L184.539063 60.582031C184.539063 61.207031 184.507813 61.398438 183.714844 61.398438L183.714844 61.710938 186.292969 61.710938 186.292969 61.398438C185.542969 61.398438 185.464844 61.207031 185.464844 60.582031L185.464844 58.285156M188.21875 53.980469C187.828125 53.980469 187.582031 54.269531 187.582031 54.605469 187.582031 54.949219 187.839844 55.238281 188.21875 55.238281 188.609375 55.238281 188.851563 54.949219 188.851563 54.605469 188.851563 54.269531 188.609375 53.980469 188.21875 53.980469zM189.46875 61.398438C188.71875 61.398438 188.664063 61.230469 188.664063 60.582031L188.664063 56.332031 188.371094 56.332031 186.96875 56.644531 186.96875 56.96875C186.96875 56.96875 187.089844 56.945313 187.246094 56.945313 187.570313 56.945313 187.738281 56.992188 187.738281 57.472656L187.738281 60.582031C187.738281 61.21875 187.703125 61.398438 186.957031 61.398438L186.957031 61.710938 189.46875 61.710938 189.46875 61.398438M190.234375 59.878906L190.269531 61.800781 190.503906 61.800781 190.738281 61.542969 190.757813 61.542969C191.050781 61.664063 191.382813 61.832031 192.03125 61.832031 193.035156 61.832031 193.90625 61.429688 193.90625 60.382813 193.90625 59.558594 193.359375 59.144531 192.34375 58.609375 191.40625 58.128906 191.039063 57.851563 191.039063 57.414063 191.039063 56.914063 191.429688 56.679688 191.941406 56.679688 192.621094 56.679688 193.035156 57.003906 193.28125 58.0625L193.582031 58.0625 193.546875 56.355469 193.324219 56.355469 193.136719 56.589844 193.125 56.589844C192.84375 56.453125 192.511719 56.300781 191.953125 56.300781 190.992188 56.300781 190.246094 56.789063 190.246094 57.703125 190.246094 58.53125 190.703125 58.921875 191.71875 59.433594 192.757813 59.945313 192.96875 60.160156 192.96875 60.683594 192.96875 61.207031 192.566406 61.417969 192.007813 61.417969 191.183594 61.417969 190.757813 61.027344 190.523438 59.878906L190.234375 59.878906M198.71875 53.832031L198.429688 53.832031 196.988281 54.222656 196.988281 54.535156C196.988281 54.535156 197.121094 54.515625 197.300781 54.515625 197.726563 54.515625 197.792969 54.605469 197.792969 55.105469L197.792969 61.375C198.0625 61.519531 198.707031 61.820313 199.65625 61.820313 201.207031 61.820313 202.332031 60.773438 202.332031 58.777344 202.332031 57.324219 201.574219 56.300781 200.46875 56.300781 199.722656 56.300781 199.140625 56.777344 198.753906 57.246094L198.71875 57.246094zM198.71875 57.738281C198.917969 57.472656 199.410156 57.058594 199.980469 57.058594 201.039063 57.058594 201.316406 58.0625 201.316406 59.132813 201.316406 60.371094 200.914063 61.363281 199.855469 61.363281 199.265625 61.363281 198.929688 61.097656 198.71875 60.839844L198.71875 57.738281M206.136719 61.019531C206.203125 61.507813 206.3125 61.765625 206.804688 61.765625 207.375 61.765625 207.640625 61.53125 208.011719 60.996094L207.84375 60.816406C207.6875 60.984375 207.53125 61.097656 207.320313 61.097656 207.085938 61.097656 206.984375 61.007813 206.984375 60.550781L206.984375 58.019531C206.984375 56.855469 206.527344 56.300781 205.3125 56.300781 204.09375 56.300781 203.347656 56.902344 203.347656 57.527344 203.347656 57.894531 203.59375 58.0625 203.816406 58.0625 204.128906 58.0625 204.304688 57.894531 204.304688 57.550781 204.304688 56.878906 204.417969 56.644531 205.054688 56.644531 205.722656 56.644531 206.058594 57.011719 206.058594 57.984375L206.058594 58.472656C205.097656 58.777344 203.121094 59.066406 203.121094 60.539063 203.121094 61.253906 203.59375 61.789063 204.453125 61.789063 205.164063 61.789063 205.566406 61.476563 206.09375 61.019531zM206.058594 60.683594C205.679688 60.996094 205.277344 61.175781 204.910156 61.175781 204.429688 61.175781 204.105469 60.828125 204.105469 60.269531 204.105469 59.402344 205.042969 59.097656 206.058594 58.84375L206.058594 60.683594M211 61.386719C210.195313 61.386719 210.140625 61.230469 210.140625 60.582031L210.140625 53.832031 209.863281 53.832031 208.390625 54.222656 208.390625 54.527344C208.390625 54.527344 208.558594 54.503906 208.746094 54.503906 209.027344 54.503906 209.214844 54.527344 209.214844 54.984375L209.214844 60.582031C209.214844 61.207031 209.171875 61.386719 208.433594 61.386719L208.433594 61.710938 211 61.710938 211 61.386719M214.199219 61.386719C213.398438 61.386719 213.34375 61.230469 213.34375 60.582031L213.34375 53.832031 213.0625 53.832031 211.589844 54.222656 211.589844 54.527344C211.589844 54.527344 211.757813 54.503906 211.945313 54.503906 212.226563 54.503906 212.414063 54.527344 212.414063 54.984375L212.414063 60.582031C212.414063 61.207031 212.371094 61.386719 211.632813 61.386719L211.632813 61.710938 214.199219 61.710938 214.199219 61.386719" />
</svg>